<?xml version="1.0" encoding="UTF-8" standalone="no"?>
<!-- Created with Inkscape (http://www.inkscape.org/) -->

<svg
   width="1066.6666"
   height="426.66666"
   id="svg3099"
   version="1.1"
   inkscape:version="1.3.2 (091e20e, 2023-11-25, custom)"
   sodipodi:docname="possible_2.svg"
   inkscape:export-filename="/tmp/1st-a4-landscape-quickfix.jpg.png"
   inkscape:export-xdpi="29.924999"
   inkscape:export-ydpi="29.924999"
   viewBox="0 0 1000 400"
   xmlns:inkscape="http://www.inkscape.org/namespaces/inkscape"
   xmlns:sodipodi="http://sodipodi.sourceforge.net/DTD/sodipodi-0.dtd"
   xmlns="http://www.w3.org/2000/svg"
   xmlns:svg="http://www.w3.org/2000/svg"
   xmlns:rdf="http://www.w3.org/1999/02/22-rdf-syntax-ns#"
   xmlns:cc="http://creativecommons.org/ns#"
   xmlns:dc="http://purl.org/dc/elements/1.1/">
  <defs
     id="defs3" />
  <sodipodi:namedview
     inkscape:document-units="mm"
     id="base"
     pagecolor="#ffffff"
     bordercolor="#666666"
     borderopacity="1.0"
     inkscape:pageopacity="0"
     inkscape:pageshadow="2"
     inkscape:zoom="0.5"
     inkscape:cx="327"
     inkscape:cy="104"
     inkscape:current-layer="svg3099"
     showgrid="false"
     inkscape:window-width="1920"
     inkscape:window-height="1001"
     inkscape:window-x="-9"
     inkscape:window-y="-9"
     inkscape:window-maximized="1"
     units="mm"
     inkscape:showpageshadow="2"
     inkscape:pagecheckerboard="0"
     inkscape:deskcolor="#d1d1d1" />
  <metadata
     id="metadata4">
    <rdf:RDF>
      <cc:Work
         rdf:about="">
        <dc:format>image/svg+xml</dc:format>
        <dc:type
           rdf:resource="http://purl.org/dc/dcmitype/StillImage" />
        <dc:title />
      </cc:Work>
    </rdf:RDF>
  </metadata>
  <g
     inkscape:label="Layer 1"
     inkscape:groupmode="layer"
     id="layer1"
     transform="translate(0,-652.36178)" />
  <g
     aria-label="IT security services"
     transform="translate(78.439024,49.071445)"
     style="font-style:normal;font-weight:normal;line-height:0.01%;font-family:sans-serif;letter-spacing:0px;word-spacing:0px;fill:#ffffff;fill-opacity:1;stroke:none;stroke-width:1px;stroke-linecap:butt;stroke-linejoin:miter;stroke-opacity:1"
     id="flowRoot4195">
    <path
       d="m 297.18823,285.02466 h -19.11072 v -2.12341 q 0.8075,-0.0598 2.33277,-0.17944 1.52527,-0.11963 2.15332,-0.35889 0.98694,-0.38879 1.43555,-1.04675 0.4486,-0.68787 0.4486,-1.88416 v -30.74463 q 0,-1.04675 -0.32898,-1.73462 -0.32898,-0.71777 -1.55517,-1.19629 -0.89722,-0.35888 -2.27295,-0.65795 -1.34583,-0.32898 -2.21314,-0.3888 v -2.12341 h 19.11072 v 2.12341 q -0.92712,0.0299 -2.21313,0.23926 -1.28601,0.17944 -2.24304,0.47852 -1.13648,0.35888 -1.52527,1.16638 -0.3888,0.80749 -0.3888,1.79443 v 30.71472 q 0,0.98694 0.4187,1.76453 0.44861,0.74768 1.49537,1.19629 0.62805,0.23926 2.03369,0.53833 1.43554,0.26916 2.42248,0.29907 z"
       style="font-style:normal;font-variant:normal;font-weight:normal;font-stretch:normal;font-size:61.25px;line-height:1.25;font-family:Georgia;-inkscape-font-specification:Georgia;fill:#ffffff;fill-opacity:1"
       id="path871" />
    <path
       d="m 337.05457,254.10059 h -2.0636 q -0.26917,-1.07666 -0.98694,-2.54211 -0.68787,-1.49536 -1.55518,-2.81128 -0.89721,-1.37573 -1.97387,-2.39258 -1.04676,-1.04675 -2.0337,-1.19629 -0.92712,-0.11963 -2.33276,-0.17944 -1.40564,-0.0598 -2.60193,-0.0598 h -1.73462 v 33.9447 q 0,0.98694 0.4187,1.82435 0.4187,0.80749 1.46546,1.2561 0.53833,0.20935 2.24304,0.56824 1.73462,0.35888 2.69165,0.38879 v 2.12341 h -20.03784 v -2.12341 q 0.8374,-0.0598 2.54211,-0.23926 1.73462,-0.17944 2.39258,-0.44861 0.98694,-0.38879 1.43555,-1.10656 0.47851,-0.74768 0.47851,-1.97388 v -34.21387 h -1.73462 q -0.92712,0 -2.30285,0.0598 -1.37573,0.0299 -2.63184,0.17944 -0.98694,0.11963 -2.0636,1.19629 -1.04675,1.04675 -1.94397,2.39258 -0.89721,1.34582 -1.58508,2.87109 -0.68787,1.49536 -0.95703,2.4823 h -2.09351 v -11.51428 h 36.96534 z"
       style="font-style:normal;font-variant:normal;font-weight:normal;font-stretch:normal;font-size:61.25px;line-height:1.25;font-family:Georgia;-inkscape-font-specification:Georgia;fill:#ffffff;fill-opacity:1"
       id="path873" />
    <path
       d="m 374.0199,270.57947 q 1.22619,1.07666 1.88415,2.4823 0.65796,1.40564 0.65796,3.43933 0,4.09729 -3.08044,6.69922 -3.05054,2.60193 -7.92542,2.60193 -2.57202,0 -4.75525,-0.92712 -2.15332,-0.92713 -3.08044,-1.70471 l -0.59815,1.94397 h -2.24304 l -0.29907,-10.25818 h 2.0636 q 0.23926,1.16638 1.01684,2.72155 0.77759,1.55518 1.88416,2.81128 1.16638,1.31592 2.78137,2.21314 1.6449,0.89721 3.67859,0.89721 2.87109,0 4.42627,-1.28601 1.55518,-1.31591 1.55518,-3.7384 0,-1.2561 -0.50843,-2.15332 -0.47851,-0.92712 -1.43554,-1.61499 -0.98694,-0.68787 -2.42249,-1.2262 -1.43555,-0.56823 -3.20007,-1.10656 -1.40564,-0.4187 -3.14026,-1.13648 -1.70471,-0.74768 -2.93091,-1.73462 -1.31592,-1.04675 -2.15332,-2.57202 -0.8374,-1.52527 -0.8374,-3.58887 0,-3.61877 2.69165,-6.13098 2.69165,-2.5122 7.20764,-2.5122 1.73462,0 3.52905,0.4486 1.82434,0.44861 2.96082,1.07666 l 0.68786,-1.55517 h 2.15332 l 0.44861,9.48059 h -2.0636 q -0.62805,-3.17017 -2.72155,-5.14404 -2.0636,-2.00379 -5.05432,-2.00379 -2.4524,0 -3.85804,1.2262 -1.40564,1.22619 -1.40564,2.96081 0,1.34583 0.44861,2.24305 0.47852,0.89721 1.40564,1.52526 0.89722,0.59815 2.24304,1.13648 1.37574,0.50842 3.37952,1.16638 1.97388,0.62805 3.7085,1.46545 1.76452,0.83741 2.901,1.85425 z"
       style="font-style:normal;font-variant:normal;font-weight:normal;font-stretch:normal;font-size:61.25px;line-height:1.25;font-family:Georgia;-inkscape-font-specification:Georgia;fill:#ffffff;fill-opacity:1"
       id="path875" />
    <path
       d="m 407.18701,278.08619 q -1.85425,3.52905 -4.9646,5.62256 -3.11035,2.0935 -7.14783,2.0935 -3.55896,0 -6.25061,-1.2561 -2.66174,-1.25611 -4.39636,-3.40943 -1.73462,-2.15332 -2.60193,-5.02441 -0.8374,-2.87109 -0.8374,-6.07117 0,-2.87109 0.89722,-5.62256 0.92712,-2.78137 2.69165,-4.9945 1.70471,-2.12342 4.21692,-3.40943 2.54211,-1.31591 5.68237,-1.31591 3.22998,0 5.53284,1.01684 2.30285,1.01685 3.7384,2.78137 1.37573,1.67481 2.03369,3.94776 0.68787,2.27295 0.68787,4.93469 v 1.97388 h -19.52942 q 0,2.901 0.53833,5.26367 0.56824,2.36267 1.76453,4.1571 1.16638,1.73462 3.05053,2.75147 1.88416,0.98694 4.48609,0.98694 2.66174,0 4.5758,-1.2262 1.94397,-1.2561 3.73841,-4.48608 z m -6.6095,-11.24512 q 0,-1.6748 -0.29907,-3.58887 -0.26916,-1.91406 -0.89721,-3.20007 -0.68787,-1.37573 -1.88416,-2.24304 -1.19629,-0.86731 -3.08044,-0.86731 -3.14026,0 -5.23377,2.63183 -2.0636,2.60193 -2.24304,7.26746 z"
       style="font-style:normal;font-variant:normal;font-weight:normal;font-stretch:normal;font-size:61.25px;line-height:1.25;font-family:Georgia;-inkscape-font-specification:Georgia;fill:#ffffff;fill-opacity:1"
       id="path877" />
    <path
       d="m 424.29395,285.80225 q -6.40015,0 -10.01893,-4.24682 -3.61877,-4.24683 -3.61877,-11.39466 0,-3.11035 0.95703,-5.802 0.98694,-2.72156 2.84119,-4.93469 1.76452,-2.12342 4.42627,-3.40943 2.66174,-1.31591 5.802,-1.31591 4.33655,0 7.0581,2.0935 2.72156,2.0636 2.72156,5.65247 0,1.49536 -0.71777,2.66174 -0.71777,1.13648 -2.36267,1.13648 -1.76453,0 -2.75147,-0.89722 -0.95703,-0.89722 -0.95703,-2.00379 0,-1.34582 0.35889,-2.75146 0.35889,-1.43555 0.4187,-2.09351 -0.53833,-0.92712 -1.61499,-1.22619 -1.04675,-0.32898 -2.27295,-0.32898 -1.43555,0 -2.75146,0.62805 -1.28602,0.59814 -2.51221,2.24304 -1.10657,1.49536 -1.79444,4.03748 -0.68786,2.54211 -0.68786,6.07116 0,5.56275 2.45239,9.0918 2.4823,3.49915 6.48987,3.49915 2.901,0 4.84497,-1.40564 1.97388,-1.40564 3.64868,-4.21692 l 1.91406,1.2561 q -1.97387,3.52905 -5.20385,5.59265 -3.22998,2.0636 -6.66931,2.0636 z"
       style="font-style:normal;font-variant:normal;font-weight:normal;font-stretch:normal;font-size:61.25px;line-height:1.25;font-family:Georgia;-inkscape-font-specification:Georgia;fill:#ffffff;fill-opacity:1"
       id="path879" />
    <path
       d="m 470.14172,284.48633 -9.60022,0.65796 -0.4486,-0.4187 v -3.7384 h -0.17945 q -0.71777,0.74768 -1.61499,1.61499 -0.89721,0.8374 -2.0636,1.52527 -1.34582,0.80749 -2.60193,1.22619 -1.2561,0.4187 -3.55896,0.4187 -3.91784,0 -5.98144,-2.54211 -2.03369,-2.57202 -2.03369,-7.4469 v -14.11621 q 0,-1.07666 -0.4187,-1.79443 -0.3888,-0.74768 -1.16639,-1.28601 -0.53833,-0.35889 -1.34582,-0.50843 -0.8075,-0.17944 -1.70471,-0.23926 v -1.94397 l 9.83948,-0.71777 0.4486,0.4187 v 20.48645 q 0,3.20008 1.43555,4.81507 1.43555,1.61499 3.43933,1.61499 1.6449,0 2.93091,-0.50843 1.28601,-0.50842 2.15332,-1.19629 0.8075,-0.62805 1.40564,-1.31591 0.62805,-0.71778 0.95703,-1.31592 v -16.71814 q 0,-0.98694 -0.4187,-1.73462 -0.4187,-0.77759 -1.16638,-1.31592 -0.53833,-0.35888 -1.61499,-0.4187 -1.04676,-0.0897 -2.36267,-0.14954 v -1.94397 l 10.70678,-0.71777 0.44861,0.4187 v 23.41736 q 0,1.01685 0.4187,1.73462 0.4187,0.71777 1.16639,1.2262 0.53833,0.32898 1.28601,0.4486 0.74768,0.0897 1.64489,0.11963 z"
       style="font-style:normal;font-variant:normal;font-weight:normal;font-stretch:normal;font-size:61.25px;line-height:1.25;font-family:Georgia;-inkscape-font-specification:Georgia;fill:#ffffff;fill-opacity:1"
       id="path881" />
    <path
       d="m 496.40027,259.33436 q 0,1.52526 -0.74768,2.72155 -0.74768,1.16639 -2.30286,1.16639 -1.6748,0 -2.57202,-0.86731 -0.86731,-0.86731 -0.86731,-1.91407 0,-0.65796 0.0897,-1.19629 0.11963,-0.53833 0.20935,-1.07666 -1.40564,0 -3.28979,1.13648 -1.88416,1.13647 -3.20008,3.22998 v 17.16675 q 0,1.04675 0.3888,1.70471 0.4187,0.65796 1.28601,0.98694 0.74768,0.29907 1.91406,0.44861 1.19629,0.14953 2.0636,0.20935 v 1.97387 h -15.55176 v -1.97387 q 0.68787,-0.0598 1.40564,-0.11963 0.74768,-0.0598 1.28601,-0.23926 0.83741,-0.26917 1.2262,-0.92712 0.4187,-0.68787 0.4187,-1.76453 v -18.2135 q 0,-0.92713 -0.44861,-1.82434 -0.4187,-0.89722 -1.19629,-1.43555 -0.56823,-0.35889 -1.34582,-0.50842 -0.77759,-0.17945 -1.67481,-0.23926 v -1.94397 l 9.80957,-0.65796 0.4187,0.4187 v 4.15711 h 0.14954 q 1.85425,-2.42249 4.1272,-3.67859 2.27295,-1.25611 4.1571,-1.25611 1.88416,0 3.05054,1.2262 1.19629,1.2262 1.19629,3.2898 z"
       style="font-style:normal;font-variant:normal;font-weight:normal;font-stretch:normal;font-size:61.25px;line-height:1.25;font-family:Georgia;-inkscape-font-specification:Georgia;fill:#ffffff;fill-opacity:1"
       id="path883" />
    <path
       d="M 513.26794,285.02466 H 499.0022 v -1.97387 q 0.68786,-0.0598 1.40564,-0.11963 0.74768,-0.0598 1.28601,-0.23926 0.8374,-0.26917 1.22619,-0.92712 0.41871,-0.68787 0.41871,-1.76453 v -18.2135 q 0,-0.95703 -0.44861,-1.73462 -0.4187,-0.8075 -1.19629,-1.34583 -0.56824,-0.35888 -1.6449,-0.59814 -1.07666,-0.26917 -1.97388,-0.32898 v -1.94397 l 10.40772,-0.65796 0.4187,0.4187 v 24.04541 q 0,1.04676 0.38879,1.73462 0.4187,0.68787 1.28601,1.01685 0.65796,0.26916 1.28601,0.44861 0.62806,0.14953 1.40564,0.20935 z m -3.76831,-41.48132 q 0,1.70471 -1.13647,2.99072 -1.10657,1.25611 -2.75147,1.25611 -1.52526,0 -2.66174,-1.19629 -1.10657,-1.2262 -1.10657,-2.78137 0,-1.6449 1.10657,-2.8711 1.13648,-1.22619 2.66174,-1.22619 1.70472,0 2.78138,1.16638 1.10656,1.13647 1.10656,2.66174 z"
       style="font-style:normal;font-variant:normal;font-weight:normal;font-stretch:normal;font-size:61.25px;line-height:1.25;font-family:Georgia;-inkscape-font-specification:Georgia;fill:#ffffff;fill-opacity:1"
       id="path885" />
    <path
       d="m 535.10022,283.73865 q -1.94397,0.8075 -3.67859,1.34583 -1.73462,0.56824 -4.24683,0.56824 -3.70849,0 -5.23376,-1.85425 -1.49536,-1.88416 -1.49536,-5.29358 v -19.97803 h -5.32349 v -2.87109 h 5.44312 v -9.18152 h 5.44311 v 9.18152 h 8.46375 v 2.87109 h -8.40393 v 16.47888 q 0,1.85425 0.11963,3.11035 0.14953,1.2262 0.65796,2.15332 0.47851,0.86731 1.43554,1.31592 0.95703,0.44861 2.57202,0.44861 0.74768,0 2.18323,-0.11963 1.46546,-0.14953 2.0636,-0.35888 z"
       style="font-style:normal;font-variant:normal;font-weight:normal;font-stretch:normal;font-size:61.25px;line-height:1.25;font-family:Georgia;-inkscape-font-specification:Georgia;fill:#ffffff;fill-opacity:1"
       id="path887" />
    <path
       d="m 535.81799,294.65479 q 0,-1.49536 0.8075,-2.45239 0.8374,-0.92713 2.0636,-0.92713 0.95703,0 1.64489,0.35889 0.68787,0.35889 1.2262,0.92712 0.44861,0.44861 0.95703,1.2262 0.50842,0.77759 0.8075,1.28601 1.49536,-0.80749 3.55896,-4.21692 2.0935,-3.40942 3.02063,-5.98144 -2.84119,-7.08802 -5.14405,-12.68067 -2.30285,-5.59265 -4.81506,-11.57409 -0.56824,-1.37574 -1.91406,-2.12342 -1.34583,-0.77758 -2.69165,-0.98693 v -1.97388 h 13.45825 v 2.0935 q -0.89722,0.0299 -2.15332,0.3888 -1.2561,0.32898 -1.2561,0.92712 0,0 0.14953,0.44861 0.17945,0.44861 0.29907,0.86731 1.13648,2.96082 3.46924,8.55347 2.33277,5.56274 3.61878,8.91235 1.34582,-3.20007 2.78137,-6.6095 1.46545,-3.43933 3.25989,-8.10486 0.20935,-0.56823 0.59814,-1.55517 0.38879,-1.01685 0.38879,-1.73462 0,-0.77759 -1.37573,-1.43555 -1.34582,-0.68786 -2.57202,-0.8374 v -1.91406 h 10.94605 v 1.85425 q -0.89722,0.14953 -2.36267,1.04675 -1.46546,0.86731 -2.18323,2.4823 -3.55896,8.25439 -6.34033,15.04333 -2.75147,6.78894 -4.18702,9.98902 -1.88415,4.18701 -3.37951,6.51977 -1.46546,2.36267 -2.8711,3.7085 -1.37573,1.2561 -2.5122,1.6748 -1.10657,0.44861 -2.30286,0.44861 -2.33276,0 -3.67859,-1.10657 -1.31592,-1.10656 -1.31592,-2.54211 z"
       style="font-style:normal;font-variant:normal;font-weight:normal;font-stretch:normal;font-size:61.25px;line-height:1.25;font-family:Georgia;-inkscape-font-specification:Georgia;fill:#ffffff;fill-opacity:1"
       id="path889" />
    <path
       d="m 602.51111,270.57947 q 1.22619,1.07666 1.88415,2.4823 0.65796,1.40564 0.65796,3.43933 0,4.09729 -3.08044,6.69922 -3.05054,2.60193 -7.92542,2.60193 -2.57202,0 -4.75525,-0.92712 -2.15332,-0.92713 -3.08044,-1.70471 l -0.59814,1.94397 h -2.24305 l -0.29907,-10.25818 h 2.0636 q 0.23926,1.16638 1.01685,2.72155 0.77758,1.55518 1.88415,2.81128 1.16638,1.31592 2.78137,2.21314 1.6449,0.89721 3.67859,0.89721 2.8711,0 4.42627,-1.28601 1.55518,-1.31591 1.55518,-3.7384 0,-1.2561 -0.50843,-2.15332 -0.47851,-0.92712 -1.43554,-1.61499 -0.98694,-0.68787 -2.42249,-1.2262 -1.43554,-0.56823 -3.20007,-1.10656 -1.40564,-0.4187 -3.14026,-1.13648 -1.70471,-0.74768 -2.93091,-1.73462 -1.31592,-1.04675 -2.15332,-2.57202 -0.8374,-1.52527 -0.8374,-3.58887 0,-3.61877 2.69165,-6.13098 2.69165,-2.5122 7.20764,-2.5122 1.73462,0 3.52905,0.4486 1.82434,0.44861 2.96082,1.07666 l 0.68787,-1.55517 h 2.15332 l 0.4486,9.48059 h -2.06359 q -0.62806,-3.17017 -2.72156,-5.14404 -2.0636,-2.00379 -5.05432,-2.00379 -2.4524,0 -3.85804,1.2262 -1.40564,1.22619 -1.40564,2.96081 0,1.34583 0.44861,2.24305 0.47852,0.89721 1.40564,1.52526 0.89722,0.59815 2.24304,1.13648 1.37574,0.50842 3.37952,1.16638 1.97388,0.62805 3.7085,1.46545 1.76452,0.83741 2.901,1.85425 z"
       style="font-style:normal;font-variant:normal;font-weight:normal;font-stretch:normal;font-size:61.25px;line-height:1.25;font-family:Georgia;-inkscape-font-specification:Georgia;fill:#ffffff;fill-opacity:1"
       id="path891" />
    <path
       d="m 635.67822,278.08619 q -1.85425,3.52905 -4.9646,5.62256 -3.11035,2.0935 -7.14782,2.0935 -3.55896,0 -6.25061,-1.2561 -2.66175,-1.25611 -4.39637,-3.40943 -1.73462,-2.15332 -2.60193,-5.02441 -0.8374,-2.87109 -0.8374,-6.07117 0,-2.87109 0.89722,-5.62256 0.92712,-2.78137 2.69165,-4.9945 1.70471,-2.12342 4.21692,-3.40943 2.54211,-1.31591 5.68237,-1.31591 3.22998,0 5.53284,1.01684 2.30285,1.01685 3.7384,2.78137 1.37573,1.67481 2.03369,3.94776 0.68787,2.27295 0.68787,4.93469 v 1.97388 h -19.52942 q 0,2.901 0.53833,5.26367 0.56824,2.36267 1.76453,4.1571 1.16638,1.73462 3.05053,2.75147 1.88416,0.98694 4.48609,0.98694 2.66174,0 4.5758,-1.2262 1.94397,-1.2561 3.73841,-4.48608 z m -6.60949,-11.24512 q 0,-1.6748 -0.29908,-3.58887 -0.26916,-1.91406 -0.89721,-3.20007 -0.68787,-1.37573 -1.88416,-2.24304 -1.19629,-0.86731 -3.08044,-0.86731 -3.14026,0 -5.23377,2.63183 -2.0636,2.60193 -2.24304,7.26746 z"
       style="font-style:normal;font-variant:normal;font-weight:normal;font-stretch:normal;font-size:61.25px;line-height:1.25;font-family:Georgia;-inkscape-font-specification:Georgia;fill:#ffffff;fill-opacity:1"
       id="path893" />
    <path
       d="m 661.72742,259.33436 q 0,1.52526 -0.74768,2.72155 -0.74768,1.16639 -2.30286,1.16639 -1.6748,0 -2.57202,-0.86731 -0.86731,-0.86731 -0.86731,-1.91407 0,-0.65796 0.0897,-1.19629 0.11963,-0.53833 0.20935,-1.07666 -1.40564,0 -3.28979,1.13648 -1.88416,1.13647 -3.20008,3.22998 v 17.16675 q 0,1.04675 0.3888,1.70471 0.4187,0.65796 1.28601,0.98694 0.74768,0.29907 1.91406,0.44861 1.19629,0.14953 2.0636,0.20935 v 1.97387 h -15.55176 v -1.97387 q 0.68787,-0.0598 1.40564,-0.11963 0.74768,-0.0598 1.28601,-0.23926 0.8374,-0.26917 1.2262,-0.92712 0.4187,-0.68787 0.4187,-1.76453 v -18.2135 q 0,-0.92713 -0.44861,-1.82434 -0.4187,-0.89722 -1.19629,-1.43555 -0.56824,-0.35889 -1.34582,-0.50842 -0.77759,-0.17945 -1.67481,-0.23926 v -1.94397 l 9.80957,-0.65796 0.4187,0.4187 v 4.15711 h 0.14954 q 1.85425,-2.42249 4.1272,-3.67859 2.27295,-1.25611 4.1571,-1.25611 1.88416,0 3.05054,1.2262 1.19629,1.2262 1.19629,3.2898 z"
       style="font-style:normal;font-variant:normal;font-weight:normal;font-stretch:normal;font-size:61.25px;line-height:1.25;font-family:Georgia;-inkscape-font-specification:Georgia;fill:#ffffff;fill-opacity:1"
       id="path895" />
    <path
       d="m 693.39917,257.36048 q -1.34583,0.23926 -2.57202,0.98694 -1.19629,0.71777 -2.0636,2.57202 -1.76453,4.00757 -3.64868,8.37402 -1.88416,4.33655 -3.91785,9.12171 -0.59814,1.37573 -1.28601,3.25988 -0.65796,1.88416 -1.2262,3.61878 h -2.33276 q -2.84119,-7.0282 -5.23376,-12.80029 -2.39258,-5.80201 -4.9646,-11.87317 -0.59815,-1.37574 -1.94397,-2.12342 -1.31592,-0.77758 -2.66175,-0.98693 v -1.97388 h 13.6377 v 2.0935 q -0.89722,0.0299 -2.24304,0.3888 -1.34583,0.32898 -1.34583,0.92712 0,0.0897 0.14954,0.47852 0.14953,0.35888 0.29907,0.8374 1.2262,3.05054 3.46924,8.52356 2.24304,5.47302 3.64868,8.82263 1.07666,-2.57202 2.69165,-6.40015 1.6449,-3.82812 3.52905,-8.55346 0.29908,-0.8075 0.56824,-1.49536 0.26917,-0.71778 0.26917,-1.43555 0,-0.50842 -0.50843,-0.89722 -0.47851,-0.4187 -1.16638,-0.71777 -0.68787,-0.29907 -1.34582,-0.44861 -0.65796,-0.14953 -1.07666,-0.20935 v -1.91406 h 11.27502 z"
       style="font-style:normal;font-variant:normal;font-weight:normal;font-stretch:normal;font-size:61.25px;line-height:1.25;font-family:Georgia;-inkscape-font-specification:Georgia;fill:#ffffff;fill-opacity:1"
       id="path897" />
    <path
       d="m 708.98083,285.02466 h -14.26574 v -1.97387 q 0.68786,-0.0598 1.40564,-0.11963 0.74768,-0.0598 1.28601,-0.23926 0.8374,-0.26917 1.22619,-0.92712 0.41871,-0.68787 0.41871,-1.76453 v -18.2135 q 0,-0.95703 -0.44861,-1.73462 -0.4187,-0.8075 -1.19629,-1.34583 -0.56824,-0.35888 -1.6449,-0.59814 -1.07666,-0.26917 -1.97388,-0.32898 v -1.94397 l 10.40772,-0.65796 0.4187,0.4187 v 24.04541 q 0,1.04676 0.38879,1.73462 0.4187,0.68787 1.28601,1.01685 0.65796,0.26916 1.28602,0.44861 0.62805,0.14953 1.40563,0.20935 z m -3.76831,-41.48132 q 0,1.70471 -1.13647,2.99072 -1.10657,1.25611 -2.75147,1.25611 -1.52526,0 -2.66174,-1.19629 -1.10657,-1.2262 -1.10657,-2.78137 0,-1.6449 1.10657,-2.8711 1.13648,-1.22619 2.66174,-1.22619 1.70472,0 2.78138,1.16638 1.10656,1.13647 1.10656,2.66174 z"
       style="font-style:normal;font-variant:normal;font-weight:normal;font-stretch:normal;font-size:61.25px;line-height:1.25;font-family:Georgia;-inkscape-font-specification:Georgia;fill:#ffffff;fill-opacity:1"
       id="path899" />
    <path
       d="m 726.2373,285.80225 q -6.40014,0 -10.01892,-4.24682 -3.61877,-4.24683 -3.61877,-11.39466 0,-3.11035 0.95703,-5.802 0.98694,-2.72156 2.84119,-4.93469 1.76452,-2.12342 4.42627,-3.40943 2.66174,-1.31591 5.802,-1.31591 4.33655,0 7.0581,2.0935 2.72156,2.0636 2.72156,5.65247 0,1.49536 -0.71777,2.66174 -0.71778,1.13648 -2.36267,1.13648 -1.76453,0 -2.75147,-0.89722 -0.95703,-0.89722 -0.95703,-2.00379 0,-1.34582 0.35889,-2.75146 0.35888,-1.43555 0.4187,-2.09351 -0.53833,-0.92712 -1.61499,-1.22619 -1.04675,-0.32898 -2.27295,-0.32898 -1.43555,0 -2.75147,0.62805 -1.28601,0.59814 -2.5122,2.24304 -1.10657,1.49536 -1.79444,4.03748 -0.68786,2.54211 -0.68786,6.07116 0,5.56275 2.45239,9.0918 2.4823,3.49915 6.48987,3.49915 2.901,0 4.84497,-1.40564 1.97388,-1.40564 3.64868,-4.21692 l 1.91406,1.2561 q -1.97387,3.52905 -5.20385,5.59265 -3.22998,2.0636 -6.66932,2.0636 z"
       style="font-style:normal;font-variant:normal;font-weight:normal;font-stretch:normal;font-size:61.25px;line-height:1.25;font-family:Georgia;-inkscape-font-specification:Georgia;fill:#ffffff;fill-opacity:1"
       id="path901" />
    <path
       d="m 766.67187,278.08619 q -1.85424,3.52905 -4.96459,5.62256 -3.11036,2.0935 -7.14783,2.0935 -3.55896,0 -6.25061,-1.2561 -2.66175,-1.25611 -4.39636,-3.40943 -1.73462,-2.15332 -2.60193,-5.02441 -0.83741,-2.87109 -0.83741,-6.07117 0,-2.87109 0.89722,-5.62256 0.92713,-2.78137 2.69165,-4.9945 1.70471,-2.12342 4.21692,-3.40943 2.54211,-1.31591 5.68237,-1.31591 3.22998,0 5.53284,1.01684 2.30286,1.01685 3.7384,2.78137 1.37574,1.67481 2.0337,3.94776 0.68786,2.27295 0.68786,4.93469 v 1.97388 h -19.52942 q 0,2.901 0.53833,5.26367 0.56824,2.36267 1.76453,4.1571 1.16638,1.73462 3.05054,2.75147 1.88415,0.98694 4.48608,0.98694 2.66174,0 4.57581,-1.2262 1.94397,-1.2561 3.7384,-4.48608 z m -6.60949,-11.24512 q 0,-1.6748 -0.29907,-3.58887 -0.26917,-1.91406 -0.89722,-3.20007 -0.68787,-1.37573 -1.88416,-2.24304 -1.19629,-0.86731 -3.08044,-0.86731 -3.14026,0 -5.23377,2.63183 -2.06359,2.60193 -2.24304,7.26746 z"
       style="font-style:normal;font-variant:normal;font-weight:normal;font-stretch:normal;font-size:61.25px;line-height:1.25;font-family:Georgia;-inkscape-font-specification:Georgia;fill:#ffffff;fill-opacity:1"
       id="path903" />
    <path
       d="m 789.61072,270.57947 q 1.22619,1.07666 1.88415,2.4823 0.65796,1.40564 0.65796,3.43933 0,4.09729 -3.08044,6.69922 -3.05054,2.60193 -7.92542,2.60193 -2.57202,0 -4.75525,-0.92712 -2.15332,-0.92713 -3.08044,-1.70471 l -0.59815,1.94397 h -2.24304 l -0.29907,-10.25818 h 2.0636 q 0.23926,1.16638 1.01684,2.72155 0.77759,1.55518 1.88416,2.81128 1.16638,1.31592 2.78137,2.21314 1.6449,0.89721 3.67859,0.89721 2.87109,0 4.42627,-1.28601 1.55518,-1.31591 1.55518,-3.7384 0,-1.2561 -0.50843,-2.15332 -0.47851,-0.92712 -1.43554,-1.61499 -0.98694,-0.68787 -2.42249,-1.2262 -1.43555,-0.56823 -3.20007,-1.10656 -1.40564,-0.4187 -3.14026,-1.13648 -1.70471,-0.74768 -2.93091,-1.73462 -1.31592,-1.04675 -2.15332,-2.57202 -0.8374,-1.52527 -0.8374,-3.58887 0,-3.61877 2.69165,-6.13098 2.69165,-2.5122 7.20764,-2.5122 1.73462,0 3.52905,0.4486 1.82434,0.44861 2.96082,1.07666 l 0.68786,-1.55517 h 2.15333 l 0.4486,9.48059 h -2.0636 q -0.62805,-3.17017 -2.72155,-5.14404 -2.0636,-2.00379 -5.05432,-2.00379 -2.4524,0 -3.85804,1.2262 -1.40564,1.22619 -1.40564,2.96081 0,1.34583 0.44861,2.24305 0.47852,0.89721 1.40564,1.52526 0.89722,0.59815 2.24304,1.13648 1.37574,0.50842 3.37952,1.16638 1.97388,0.62805 3.7085,1.46545 1.76452,0.83741 2.901,1.85425 z"
       style="font-style:normal;font-variant:normal;font-weight:normal;font-stretch:normal;font-size:61.25px;line-height:1.25;font-family:Georgia;-inkscape-font-specification:Georgia;fill:#ffffff;fill-opacity:1"
       id="path905" />
  </g>
  <g
     transform="matrix(6.4831831,0,0,6.0273727,-2678.1356,-770.38087)"
     id="flowRoot3049-6-2-9-0"
     style="font-style:normal;font-weight:normal;line-height:125%;font-family:Sans;letter-spacing:0px;word-spacing:0px;fill:#ffffff;fill-opacity:1;stroke:none;stroke-width:1px;stroke-linecap:butt;stroke-linejoin:miter;stroke-opacity:1;font-variant:normal;font-stretch:normal;font-size:40px;-inkscape-font-specification:Ubuntu">
    <path
       id="path3058-91-1-2-0"
       style="fill:#ffffff;fill-opacity:1;stroke:none"
       d="M 444.74991 136.1251 C 444.07283 136.65635 443.39574 137.18753 442.71866 137.71878 C 435.32263 143.04527 427.67083 151.48521 430.50011 161.40618 C 430.96822 157.63666 436.74547 155.58701 437.75012 159.93736 C 437.46737 163.89325 435.5485 165.6376 435.26021 169.66471 C 434.69886 177.50619 437.80362 180.04671 439.66303 190.77203 C 439.26289 183.20619 438.22926 175.54379 443.42474 169.15799 C 443.32065 162.10158 441.25606 152.17185 444.74991 136.1251 z M 439.03971 144.27547 C 439.08581 145.17794 439.22014 148.36764 438.99339 149.27008 C 438.76663 150.17251 437.88872 150.43389 436.80087 150.99075 C 435.59585 151.60759 432.83723 152.60873 432.83723 152.60873 C 432.83723 152.60873 432.8983 150.51323 433.33572 149.61549 C 433.54619 149.18353 437.58186 145.36575 439.03971 144.27547 z " />
  </g>
  <g
     aria-label="possible.lv"
     transform="matrix(1.6136061,0,0,1.6136061,-150.5244,-366.407)"
     style="font-style:normal;font-weight:bold;line-height:0.01%;font-family:Georgia;letter-spacing:0px;word-spacing:0px;fill:#ffffff;fill-opacity:1;stroke:none;stroke-width:1px;stroke-linecap:butt;stroke-linejoin:miter;stroke-opacity:1;font-variant:normal;font-stretch:normal;-inkscape-font-specification:'Georgia Bold';text-align:start;writing-mode:lr-tb;text-anchor:start"
     id="flowRoot3126">
    <path
       d="m 333.43164,302.4072 q 0,7.41797 -4.95703,12.72657 -4.95703,5.30859 -12.55078,5.30859 -3.375,0 -5.48438,-0.70312 -2.10937,-0.66797 -3.48047,-1.65235 h -0.28125 v 9.87891 q 0,1.23047 0.52735,2.14453 0.5625,0.91406 1.54687,1.33594 0.94922,0.38672 2.67188,0.70312 1.75781,0.31641 2.91797,0.38672 v 2.60156 h -25.38282 v -2.60156 q 0.87891,-0.0703 2.21485,-0.28125 1.33594,-0.17578 2.0039,-0.38672 1.125,-0.38672 1.51172,-1.33594 0.42188,-0.91406 0.42188,-2.10937 v -35.96484 q -0.10547,-1.16016 -0.5625,-2.03907 -0.42188,-0.8789 -1.3711,-1.54687 -0.70312,-0.45703 -1.86328,-0.73828 -1.16015,-0.31641 -2.28515,-0.42188 v -2.5664 l 17.12109,-0.91407 0.52734,0.45703 v 3.90235 l 0.28125,0.0703 q 2.32032,-2.35547 5.13282,-3.65625 2.84765,-1.30078 5.625,-1.30078 7.27734,0 11.49609,5.16797 4.21875,5.13281 4.21875,13.53515 z m -12.62109,0.14063 q 0,-2.63672 -0.38672,-5.02734 -0.38672,-2.42579 -1.3711,-4.32422 -0.94921,-1.89844 -2.53125,-3.02344 -1.54687,-1.125 -3.79687,-1.125 -2.28516,0 -3.65625,0.80859 -1.37109,0.77344 -2.39063,2.03907 v 19.93359 q 0.21094,0.70312 0.8086,1.82812 0.59765,1.08985 1.19531,1.75782 0.87891,0.94922 2.00391,1.40625 1.125,0.45703 2.46093,0.45703 3.48047,0 5.55469,-3.72656 2.10938,-3.76172 2.10938,-11.00391 z"
       style="font-size:72px;line-height:1.47;fill:#ffffff;fill-opacity:1"
       id="path848" />
    <path
       d="m 373.89648,288.80174 q 2.60157,2.42578 3.97266,5.80078 1.37109,3.375 1.37109,7.3125 0,3.90234 -1.37109,7.38281 -1.33594,3.44531 -3.9375,5.90625 -2.77734,2.63672 -6.64453,4.04297 -3.83203,1.40625 -8.78906,1.40625 -4.28907,0 -7.91016,-1.23047 -3.58594,-1.23047 -6.36328,-3.69141 -2.67188,-2.35547 -4.21875,-5.80078 -1.54688,-3.48047 -1.54688,-7.76953 0,-4.21875 1.33594,-7.48828 1.3711,-3.30469 4.07813,-5.87109 2.60156,-2.46094 6.39843,-3.79688 3.83204,-1.37109 8.54297,-1.37109 4.92188,0 8.64844,1.37109 3.76172,1.33594 6.43359,3.79688 z m -9,24.36328 q 0.77344,-1.96875 1.125,-4.78125 0.38672,-2.8125 0.38672,-6.53907 0,-2.46093 -0.35156,-5.625 -0.35156,-3.16406 -1.05469,-4.99218 -0.84375,-2.21485 -2.35547,-3.48047 -1.47656,-1.26563 -3.76171,-1.26563 -2.4961,0 -4.00782,1.3711 -1.47656,1.37109 -2.28515,3.55078 -0.73828,2.0039 -1.01953,4.71094 -0.28125,2.67187 -0.28125,5.58984 0,3.83203 0.24609,6.36328 0.24609,2.49609 1.19531,5.02734 0.8086,2.17969 2.32031,3.44532 1.51172,1.26562 3.83204,1.26562 2.10937,0 3.62109,-1.16015 1.51172,-1.19532 2.39062,-3.48047 z"
       style="font-size:72px;line-height:1.47;fill:#ffffff;fill-opacity:1"
       id="path850" />
    <path
       d="m 400.12305,320.72361 q -3.41016,0 -6.67969,-1.01953 -3.23438,-0.98438 -5.02734,-2.10938 l -1.05469,2.39063 h -2.74219 l -0.45703,-13.11328 h 2.56641 q 0.52734,1.58203 1.75781,3.58594 1.23047,1.96875 2.8125,3.55078 1.65234,1.58203 3.76172,2.67187 2.14453,1.08985 4.57031,1.08985 3.19922,0 4.74609,-1.23047 1.58203,-1.26563 1.58203,-3.86719 0,-1.40625 -0.70312,-2.32031 -0.70313,-0.91407 -1.93359,-1.58203 -1.3711,-0.70313 -3.02344,-1.19532 -1.61719,-0.49218 -4.00781,-1.19531 -2.39063,-0.70312 -4.11329,-1.40625 -1.6875,-0.73828 -3.51562,-2.28516 -1.58203,-1.37109 -2.53125,-3.30468 -0.94922,-1.9336 -0.94922,-4.60547 0,-4.95703 4.14844,-8.01563 4.18359,-3.05859 10.93359,-3.05859 3.19922,0 5.8711,0.66797 2.70703,0.63281 4.53515,1.40625 l 0.73828,-2.07422 h 2.67188 l 0.5625,11.98828 h -2.4961 q -1.23046,-3.65625 -4.21875,-6.29297 -2.98828,-2.67187 -6.43359,-2.67187 -2.70703,0 -4.25391,1.125 -1.54687,1.125 -1.54687,3.1289 0,2.67188 2.25,3.86719 2.28516,1.19531 6.36328,2.25 6.29297,1.61719 9.21094,4.42969 2.91797,2.77734 2.91797,7.10156 0,5.76563 -4.53516,8.92969 -4.5,3.16406 -11.77734,3.16406 z"
       style="font-size:72px;line-height:1.47;fill:#ffffff;fill-opacity:1"
       id="path852" />
    <path
       d="m 437.10742,320.72361 q -3.41015,0 -6.67969,-1.01953 -3.23437,-0.98438 -5.02734,-2.10938 l -1.05469,2.39063 h -2.74218 l -0.45704,-13.11328 h 2.56641 q 0.52734,1.58203 1.75781,3.58594 1.23047,1.96875 2.8125,3.55078 1.65235,1.58203 3.76172,2.67187 2.14453,1.08985 4.57031,1.08985 3.19922,0 4.7461,-1.23047 1.58203,-1.26563 1.58203,-3.86719 0,-1.40625 -0.70313,-2.32031 -0.70312,-0.91407 -1.93359,-1.58203 -1.37109,-0.70313 -3.02344,-1.19532 -1.61718,-0.49218 -4.00781,-1.19531 -2.39062,-0.70312 -4.11328,-1.40625 -1.6875,-0.73828 -3.51563,-2.28516 -1.58203,-1.37109 -2.53125,-3.30468 -0.94921,-1.9336 -0.94921,-4.60547 0,-4.95703 4.14843,-8.01563 4.1836,-3.05859 10.9336,-3.05859 3.19922,0 5.87109,0.66797 2.70703,0.63281 4.53516,1.40625 l 0.73828,-2.07422 h 2.67187 l 0.5625,11.98828 h -2.49609 q -1.23047,-3.65625 -4.21875,-6.29297 -2.98828,-2.67187 -6.43359,-2.67187 -2.70704,0 -4.25391,1.125 -1.54688,1.125 -1.54688,3.1289 0,2.67188 2.25,3.86719 2.28516,1.19531 6.36329,2.25 6.29296,1.61719 9.21093,4.42969 2.91797,2.77734 2.91797,7.10156 0,5.76563 -4.53515,8.92969 -4.5,3.16406 -11.77735,3.16406 z"
       style="font-size:72px;line-height:1.47;fill:#ffffff;fill-opacity:1"
       id="path854" />
    <path
       d="m 480.0332,319.5283 h -22.21875 v -2.56641 q 0.91407,-0.0703 1.79297,-0.17578 0.87891,-0.10547 1.51172,-0.35156 1.125,-0.42188 1.58203,-1.19531 0.45703,-0.8086 0.45703,-2.10938 v -20.46094 q 0,-1.23047 -0.5625,-2.14453 -0.5625,-0.94922 -1.40625,-1.51172 -0.63281,-0.42187 -1.93359,-0.80859 -1.26563,-0.38672 -2.32031,-0.49219 v -2.5664 l 17.22656,-0.91407 0.52734,0.52735 v 27.91406 q 0,1.23047 0.52735,2.10937 0.52734,0.84375 1.51172,1.26563 0.70312,0.31641 1.54687,0.5625 0.84375,0.24609 1.75781,0.35156 z m -5.13281,-47.95313 q 0,2.67188 -2.07422,4.57032 -2.03906,1.86328 -4.85156,1.86328 -2.84766,0 -4.92188,-1.86328 -2.03906,-1.89844 -2.03906,-4.57032 0,-2.67187 2.03906,-4.57031 2.07422,-1.89844 4.92188,-1.89844 2.84766,0 4.88672,1.89844 2.03906,1.89844 2.03906,4.57031 z"
       style="font-size:72px;line-height:1.47;fill:#ffffff;fill-opacity:1"
       id="path856" />
    <path
       d="m 525.20898,302.33689 q 0,7.91016 -5.23828,13.11328 -5.20312,5.20313 -13.21875,5.20313 -3.09375,0 -5.34375,-0.45703 -2.21484,-0.42188 -3.76172,-1.05469 -1.61718,-0.66797 -2.60156,-1.30078 -0.94922,-0.66797 -1.51172,-1.08985 l -5.02734,4.57032 -2.07422,-0.8086 q 0.17578,-2.5664 0.28125,-5.55468 0.14063,-3.02344 0.14063,-8.1211 v -32.90625 q 0,-1.33594 -0.5625,-2.46094 -0.52735,-1.16015 -1.44141,-1.75781 -0.66797,-0.42187 -1.96875,-0.73828 -1.26563,-0.31641 -2.35547,-0.38672 v -2.5664 l 17.36719,-0.91407 0.52734,0.5625 v 22.85157 h 0.21094 q 2.56641,-2.4961 5.27344,-3.65625 2.70703,-1.16016 5.41406,-1.16016 7.38281,0 11.63672,5.02734 4.2539,5.02735 4.2539,13.60547 z m -12.62109,0.42188 q 0,-2.67188 -0.42187,-5.13282 -0.38672,-2.49609 -1.33594,-4.39453 -0.94922,-1.89843 -2.4961,-3.02343 -1.54687,-1.16016 -3.83203,-1.16016 -2.14453,0 -3.55078,0.70312 -1.40625,0.70313 -2.53125,2.07422 v 20.46094 q 0.21094,0.70313 0.77344,1.86328 0.59766,1.125 1.19531,1.75781 0.84375,0.91407 1.79297,1.40625 0.94922,0.45704 2.67188,0.45704 3.58593,0 5.66015,-3.90235 2.07422,-3.9375 2.07422,-11.10937 z"
       style="font-size:72px;line-height:1.47;fill:#ffffff;fill-opacity:1"
       id="path858" />
    <path
       d="m 551.22461,319.5283 h -22.04297 v -2.56641 q 0.91406,-0.0703 1.75781,-0.17578 0.87891,-0.10547 1.54688,-0.35156 1.125,-0.42188 1.51172,-1.19531 0.42187,-0.8086 0.42187,-2.10938 v -38.95312 q 0,-1.33594 -0.5625,-2.46094 -0.52734,-1.16016 -1.4414,-1.75781 -0.70313,-0.45704 -2.14454,-0.87891 -1.40625,-0.42188 -2.49609,-0.49219 v -2.5664 l 17.68359,-0.91407 0.52735,0.5625 v 47.00391 q 0,1.30078 0.45703,2.10937 0.45703,0.8086 1.47656,1.26563 0.70313,0.31641 1.47656,0.5625 0.77344,0.24609 1.82813,0.35156 z"
       style="font-size:72px;line-height:1.47;fill:#ffffff;fill-opacity:1"
       id="path860" />
    <path
       d="m 592.35742,311.12595 q -1.23047,2.00391 -2.98828,3.79688 -1.72266,1.75781 -3.9375,3.02344 -2.35547,1.33593 -4.78125,2.0039 -2.39062,0.70313 -5.51953,0.70313 -5.20313,0 -9,-1.47656 -3.76172,-1.47657 -6.22266,-3.97266 -2.46093,-2.49609 -3.6914,-5.87109 -1.19532,-3.41016 -1.19532,-7.38282 0,-3.58593 1.30079,-6.85547 1.33593,-3.30468 3.76171,-5.87109 2.39063,-2.49609 6.01172,-4.04297 3.65625,-1.54687 8.15625,-1.54687 4.92188,0 8.08594,1.19531 3.16406,1.19531 5.23828,3.30469 2.00391,2.0039 2.91797,4.74609 0.91406,2.70703 0.91406,5.69531 v 2.28516 h -23.76562 q 0,7.20703 2.77734,10.96875 2.77735,3.76172 8.82422,3.76172 3.30469,0 5.94141,-1.79297 2.63672,-1.82813 4.5,-4.60547 z m -13.42969,-13.35937 q 0,-2.10938 -0.21093,-4.32422 -0.21094,-2.21484 -0.73828,-3.62109 -0.59766,-1.65235 -1.65235,-2.4961 -1.01953,-0.84375 -2.60156,-0.84375 -2.70703,0 -4.32422,2.74219 -1.61719,2.74219 -1.75781,8.68359 z"
       style="font-size:72px;line-height:1.47;fill:#ffffff;fill-opacity:1"
       id="path862" />
    <path
       d="m 612.50195,313.69236 q 0,2.77734 -2.07422,4.81641 -2.03906,2.03906 -4.85156,2.03906 -2.84765,0 -4.92187,-2.00391 -2.03907,-2.03906 -2.03907,-4.85156 0,-2.8125 2.03907,-4.85156 2.07422,-2.07422 4.92187,-2.07422 2.8125,0 4.85156,2.07422 2.07422,2.07422 2.07422,4.85156 z"
       style="font-size:72px;line-height:1.47;fill:#ffffff;fill-opacity:1"
       id="path864" />
    <path
       d="m 640.80273,319.5283 h -22.04296 v -2.56641 q 0.91406,-0.0703 1.75781,-0.17578 0.8789,-0.10547 1.54687,-0.35156 1.125,-0.42188 1.51172,-1.19531 0.42188,-0.8086 0.42188,-2.10938 v -38.95312 q 0,-1.33594 -0.5625,-2.46094 -0.52735,-1.16016 -1.44141,-1.75781 -0.70312,-0.45704 -2.14453,-0.87891 -1.40625,-0.42188 -2.49609,-0.49219 v -2.5664 l 17.68359,-0.91407 0.52734,0.5625 v 47.00391 q 0,1.30078 0.45703,2.10937 0.45704,0.8086 1.47657,1.26563 0.70312,0.31641 1.47656,0.5625 0.77344,0.24609 1.82812,0.35156 z"
       style="font-size:72px;line-height:1.47;fill:#ffffff;fill-opacity:1"
       id="path866" />
    <path
       d="m 684.2207,287.2197 q -1.58203,0.2461 -3.09375,1.19532 -1.47656,0.94922 -2.46093,2.95312 -2.46094,5.13281 -4.85157,10.3711 -2.35547,5.20312 -4.64062,10.08984 -0.70313,1.47656 -1.61719,3.79687 -0.87891,2.32032 -1.47656,4.21875 h -6.46875 q -4.04297,-9.38671 -6.92578,-15.57421 -2.84766,-6.1875 -6.04688,-13.28907 -0.73828,-1.65234 -2.32031,-2.60156 -1.54688,-0.94922 -3.16406,-1.16016 v -2.5664 h 21.65625 v 2.5664 q -1.19532,0.0352 -2.8125,0.52735 -1.61719,0.49219 -1.61719,1.26562 0,0.21094 0.14062,0.63282 0.14063,0.42187 0.35157,0.94921 1.125,2.67188 3.375,7.69922 2.28515,5.02735 4.8164,10.58203 1.75782,-3.83203 3.33985,-7.48828 1.61718,-3.6914 3.97265,-9.38672 0.31641,-0.84375 0.35157,-1.37109 0.0703,-0.52734 0.0703,-0.70312 0,-0.63282 -0.63281,-1.08985 -0.59766,-0.49219 -1.44141,-0.84375 -0.87891,-0.35156 -1.6875,-0.52734 -0.80859,-0.17578 -1.33594,-0.2461 v -2.5664 h 14.51953 z"
       style="font-size:72px;line-height:1.47;fill:#ffffff;fill-opacity:1"
       id="path868" />
  </g>
  <path
     d="m 630.00001,238.79076 a 122.14286,122.14286 0 1 1 -244.28572,0 122.14286,122.14286 0 1 1 244.28572,0 z"
     id="path3047-0-7-81-7"
     style="font-style:normal;font-weight:normal;line-height:125%;font-family:Ubuntu;letter-spacing:0px;word-spacing:0px;fill:none;fill-opacity:1;stroke:#ffffff;stroke-width:11.3089;stroke-linecap:butt;stroke-linejoin:miter;stroke-opacity:1;font-variant:normal;font-stretch:normal;font-size:40px;-inkscape-font-specification:Ubuntu;stroke-miterlimit:4;stroke-dasharray:none"
     inkscape:connector-curvature="0"
     transform="matrix(0.92012891,0,0,0.92012891,-303.24237,-81.602409)" />
</svg>
